<?xml version="1.0" encoding="UTF-8" standalone="no"?>
<svg
   xmlns:dc="http://purl.org/dc/elements/1.1/"
   xmlns:cc="http://creativecommons.org/ns#"
   xmlns:rdf="http://www.w3.org/1999/02/22-rdf-syntax-ns#"
   xmlns:svg="http://www.w3.org/2000/svg"
   xmlns="http://www.w3.org/2000/svg"
   xmlns:sodipodi="http://sodipodi.sourceforge.net/DTD/sodipodi-0.dtd"
   xmlns:inkscape="http://www.inkscape.org/namespaces/inkscape"
   viewBox="0 0 107 107"
   enable-background="new 0 0 107 107"
   version="1.1"
   id="svg4581"
   sodipodi:docname="lock.svg"
   inkscape:export-filename="/home/luna/git/DrohnenSteuerung/QT/myo-drone/gui/Icons/lock_open.png"
   inkscape:export-xdpi="44.859814"
   inkscape:export-ydpi="44.859814"
   inkscape:version="0.92.0 r">
  <metadata
     id="metadata4587">
    <rdf:RDF>
      <cc:Work
         rdf:about="">
        <dc:format>image/svg+xml</dc:format>
        <dc:type
           rdf:resource="http://purl.org/dc/dcmitype/StillImage" />
      </cc:Work>
    </rdf:RDF>
  </metadata>
  <defs
     id="defs4585" />
  <sodipodi:namedview
     pagecolor="#ffffff"
     bordercolor="#666666"
     borderopacity="1"
     objecttolerance="10"
     gridtolerance="10"
     guidetolerance="10"
     inkscape:pageopacity="0"
     inkscape:pageshadow="2"
     inkscape:window-width="1920"
     inkscape:window-height="1016"
     id="namedview4583"
     showgrid="false"
     inkscape:zoom="5.4387746"
     inkscape:cx="28.747794"
     inkscape:cy="56.763639"
     inkscape:window-x="0"
     inkscape:window-y="27"
     inkscape:window-maximized="1"
     inkscape:current-layer="svg4581" />
  <path
     style="fill:none;fill-opacity:1;stroke:#0abddd;stroke-width:3.40609932;stroke-miterlimit:4;stroke-dasharray:none;stroke-opacity:1"
     d="M 28.580078 28.867188 C 23.396301 28.867188 19.222656 33.038879 19.222656 38.222656 L 19.222656 88.064453 C 19.222656 93.24823 23.396301 97.419922 28.580078 97.419922 L 78.419922 97.419922 C 83.603699 97.419922 87.777344 93.24823 87.777344 88.064453 L 87.777344 38.222656 C 87.777344 33.038879 83.603699 28.867188 78.419922 28.867188 L 28.580078 28.867188 z M 53.482422 41.277344 A 11.171111 11.171111 0 0 1 64.652344 52.449219 A 11.171111 11.171111 0 0 1 58.427734 62.460938 L 64.652344 80.423828 C 65.206551 82.023191 63.290317 83.480469 61.597656 83.480469 L 45.318359 83.480469 C 43.625698 83.480469 42.261719 82.116491 42.261719 80.423828 L 48.496094 62.431641 A 11.171111 11.171111 0 0 1 42.310547 52.449219 A 11.171111 11.171111 0 0 1 53.482422 41.277344 z "
     id="rect4592" />
  <path
     style="fill:none;fill-opacity:1;stroke:#0abddd;stroke-width:3.40609932;stroke-miterlimit:4;stroke-dasharray:none;stroke-opacity:1"
     d="m 37.458984,2.0416153 c -5.183782,0 -9.357422,4.1716889 -9.357422,9.3554687 v 0.882813 l 5.591797,0.02148 v 0 c 0,0 2.065346,-4.6347658 4.632813,-4.6347658 h 30.347656 c 2.567465,0 4.632813,2.0673 4.632813,4.6347658 l 0,16.345375 5.591797,0.02148 0,-17.271156 c 0,-5.1837798 -4.173639,-9.3554687 -9.357422,-9.3554687 z"
     id="rect4612"
     inkscape:connector-curvature="0"
     sodipodi:nodetypes="ssccssssccsss" />
  <path
     inkscape:connector-curvature="0"
     id="path4642"
     d="m 125.92468,42.013592 a 11.171111,11.171111 0 0 0 -11.17076,11.170756 11.171111,11.171111 0 0 0 6.18494,9.983109 l -6.23371,17.992546 c 0,1.692663 1.36252,3.055176 3.05518,3.055176 h 16.27993 c 1.69266,0 3.60938,-1.455813 3.05517,-3.055176 l -6.2251,-17.963859 a 11.171111,11.171111 0 0 0 6.2251,-10.011796 11.171111,11.171111 0 0 0 -11.17075,-11.170756 z"
     style="fill:none;fill-opacity:1;stroke:#a9a9a9;stroke-width:3.40609932;stroke-miterlimit:4;stroke-dasharray:none;stroke-opacity:1" />
</svg>
