<?xml version="1.0" encoding="UTF-8" standalone="no"?>
<svg
   xmlns:dc="http://purl.org/dc/elements/1.1/"
   xmlns:cc="http://creativecommons.org/ns#"
   xmlns:rdf="http://www.w3.org/1999/02/22-rdf-syntax-ns#"
   xmlns:svg="http://www.w3.org/2000/svg"
   xmlns="http://www.w3.org/2000/svg"
   xmlns:sodipodi="http://sodipodi.sourceforge.net/DTD/sodipodi-0.dtd"
   xmlns:inkscape="http://www.inkscape.org/namespaces/inkscape"
   viewBox="0 0 107 107"
   enable-background="new 0 0 107 107"
   version="1.1"
   id="svg4581"
   sodipodi:docname="lock.svg"
   inkscape:export-filename="/home/luna/git/DrohnenSteuerung/QT/myo-drone/gui/Icons/lock_closeds.png"
   inkscape:export-xdpi="44.859814"
   inkscape:export-ydpi="44.859814"
   inkscape:version="0.92.0 r">
  <metadata
     id="metadata4587">
    <rdf:RDF>
      <cc:Work
         rdf:about="">
        <dc:format>image/svg+xml</dc:format>
        <dc:type
           rdf:resource="http://purl.org/dc/dcmitype/StillImage" />
      </cc:Work>
    </rdf:RDF>
  </metadata>
  <defs
     id="defs4585" />
  <sodipodi:namedview
     pagecolor="#ffffff"
     bordercolor="#666666"
     borderopacity="1"
     objecttolerance="10"
     gridtolerance="10"
     guidetolerance="10"
     inkscape:pageopacity="0"
     inkscape:pageshadow="2"
     inkscape:window-width="1920"
     inkscape:window-height="1016"
     id="namedview4583"
     showgrid="false"
     inkscape:zoom="5.4387746"
     inkscape:cx="28.747794"
     inkscape:cy="93.536628"
     inkscape:window-x="0"
     inkscape:window-y="27"
     inkscape:window-maximized="1"
     inkscape:current-layer="svg4581" />
  <path
     style="fill:none;fill-opacity:1;stroke:#a9a9a9;stroke-width:3.40609932;stroke-miterlimit:4;stroke-dasharray:none;stroke-opacity:1"
     d="M 28.580078 28.867188 C 23.396301 28.867188 19.222656 33.038879 19.222656 38.222656 L 19.222656 88.064453 C 19.222656 93.24823 23.396301 97.419922 28.580078 97.419922 L 78.419922 97.419922 C 83.603699 97.419922 87.777344 93.24823 87.777344 88.064453 L 87.777344 38.222656 C 87.777344 33.038879 83.603699 28.867188 78.419922 28.867188 L 28.580078 28.867188 z M 53.482422 41.277344 A 11.171111 11.171111 0 0 1 64.652344 52.449219 A 11.171111 11.171111 0 0 1 58.427734 62.460938 L 64.652344 80.423828 C 65.206551 82.023191 63.290317 83.480469 61.597656 83.480469 L 45.318359 83.480469 C 43.625698 83.480469 42.261719 82.116491 42.261719 80.423828 L 48.496094 62.431641 A 11.171111 11.171111 0 0 1 42.310547 52.449219 A 11.171111 11.171111 0 0 1 53.482422 41.277344 z "
     id="rect4592" />
  <path
     style="fill:none;fill-opacity:1;stroke:#a9a9a9;stroke-width:3.40609932;stroke-miterlimit:4;stroke-dasharray:none;stroke-opacity:1"
     d="M 37.458984 9.5800781 C 32.275202 9.5800781 28.101562 13.751767 28.101562 18.935547 L 28.101562 28.292969 L 33.693359 28.314453 L 33.693359 19.839844 C 33.693359 17.272378 35.758705 15.205078 38.326172 15.205078 L 68.673828 15.205078 C 71.241293 15.205078 73.306641 17.272378 73.306641 19.839844 L 73.306641 28.462891 L 78.898438 28.484375 L 78.898438 18.935547 C 78.898438 13.751767 74.724799 9.5800781 69.541016 9.5800781 L 37.458984 9.5800781 z "
     id="rect4612" />
  <path
     inkscape:connector-curvature="0"
     id="path4642"
     d="m 125.92468,42.013592 a 11.171111,11.171111 0 0 0 -11.17076,11.170756 11.171111,11.171111 0 0 0 6.18494,9.983109 l -6.23371,17.992546 c 0,1.692663 1.36252,3.055176 3.05518,3.055176 h 16.27993 c 1.69266,0 3.60938,-1.455813 3.05517,-3.055176 l -6.2251,-17.963859 a 11.171111,11.171111 0 0 0 6.2251,-10.011796 11.171111,11.171111 0 0 0 -11.17075,-11.170756 z"
     style="fill:none;fill-opacity:1;stroke:#a9a9a9;stroke-width:3.40609932;stroke-miterlimit:4;stroke-dasharray:none;stroke-opacity:1" />
</svg>
