<?xml version="1.0" encoding="UTF-8" standalone="no"?>
<!-- Generator: Adobe Illustrator 17.1.0, SVG Export Plug-In . SVG Version: 6.00 Build 0)  -->

<svg
   xmlns:dc="http://purl.org/dc/elements/1.1/"
   xmlns:cc="http://creativecommons.org/ns#"
   xmlns:rdf="http://www.w3.org/1999/02/22-rdf-syntax-ns#"
   xmlns:svg="http://www.w3.org/2000/svg"
   xmlns="http://www.w3.org/2000/svg"
   xmlns:sodipodi="http://sodipodi.sourceforge.net/DTD/sodipodi-0.dtd"
   xmlns:inkscape="http://www.inkscape.org/namespaces/inkscape"
   version="1.1"
   id="Layer_1"
   x="0px"
   y="0px"
   viewBox="0 0 120 120"
   enable-background="new 0 0 119.1 94.8"
   xml:space="preserve"
   sodipodi:docname="thalmic_logo_mark.svg"
   width="120"
   height="120"
   inkscape:export-filename="/home/luna/git/DrohnenSteuerung/QT/myo-drone/gui/Icons/thalmic_logo_col.png"
   inkscape:export-xdpi="40"
   inkscape:export-ydpi="40"
   inkscape:version="0.92.0 r"><metadata
     id="metadata4547"><rdf:RDF><cc:Work
         rdf:about=""><dc:format>image/svg+xml</dc:format><dc:type
           rdf:resource="http://purl.org/dc/dcmitype/StillImage" /><dc:title></dc:title></cc:Work></rdf:RDF></metadata><defs
     id="defs4545" /><sodipodi:namedview
     pagecolor="#ffffff"
     bordercolor="#666666"
     borderopacity="1"
     objecttolerance="10"
     gridtolerance="10"
     guidetolerance="10"
     inkscape:pageopacity="0"
     inkscape:pageshadow="2"
     inkscape:window-width="1920"
     inkscape:window-height="1016"
     id="namedview4543"
     showgrid="false"
     inkscape:zoom="4.3407172"
     inkscape:cx="15.036972"
     inkscape:cy="55.923256"
     inkscape:window-x="0"
     inkscape:window-y="27"
     inkscape:window-maximized="1"
     inkscape:current-layer="Layer_1" /><g
     id="g4540"
     transform="translate(0.35,12.65)"
     style="fill:#0abddd;fill-opacity:1"><path
       d="M 118.8,36 C 118.8,24.2 115.3,12.7 108.7,2.8 107.4,1.1 105.4,0 103.2,0 c -1.6,0 -3,0.5 -4.2,1.4 -3.1,2.4 -3.8,6.8 -1.6,9.7 v 0.2 c 4.7,7.4 7.2,16 7.2,24.8 0,8.8 -2.4,17.3 -7.1,24.7 v 0 c -0.8,1.1 -2.5,1.3 -3.6,0.5 -0.6,-0.5 -0.9,-1.1 -1.1,-1.7 -0.2,-0.6 0,-1.4 0.5,-1.9 v -0.2 c 4.1,-6.4 6.3,-14 6.3,-21.5 0,-7.7 -2.2,-15.1 -6.1,-21.5 v -0.2 c -1.3,-1.7 -3.5,-2.8 -5.7,-2.8 -1.6,0 -3,0.5 -4.2,1.4 -1.6,1.1 -2.5,2.8 -2.8,4.6 -0.3,1.9 0.2,3.8 1.3,5.2 2.4,4.1 3.6,8.6 3.6,13.4 0,4.8 -1.1,9.1 -3.5,13.2 v 0 c -0.8,1.1 -2.5,1.4 -3.6,0.5 C 77.3,48.9 77.2,47.4 78,46.2 L 78.2,46 c 1.6,-3 2.4,-6.4 2.4,-9.9 0,-3.5 -0.8,-6.9 -2.5,-10.1 -1.1,-2 -3.1,-3.3 -5.5,-3.3 -1.1,0 -2.2,0.3 -3.3,0.9 -1.7,0.9 -2.7,3.8 -2.5,8.2 v 62.9 h 0.6 c 29.5,-3.5 51.7,-28.3 51.9,-58 V 36 Z m -4.4,0.5 C 114.4,62.4 96,84.6 70.9,89.6 V 31.9 c 0,-0.2 0,-0.3 0,-0.6 0,-1.1 0,-3.8 0.6,-4.1 C 71.7,27 72,27 72.1,27 c 0.6,0 1.4,0.5 2,1.4 0.9,1.3 1.7,4.7 1.7,7.5 0,2.7 -0.6,5.2 -1.7,7.4 v 0.2 c -2,3.6 -1.4,7.5 1.6,9.7 1.3,0.9 2.7,1.4 4.2,1.4 2.2,0 4.4,-1.1 5.7,-2.8 C 88.5,47.1 90,41.6 90,36 90,30.4 88.6,25 85.8,20.3 v -0.2 c -0.5,-0.6 -0.6,-1.3 -0.5,-1.9 0.2,-0.6 0.5,-1.3 1.1,-1.7 1.1,-0.8 2.8,-0.6 3.6,0.5 3.5,5.7 5.3,12.3 5.3,19 0,6.7 -1.8,13.3 -5.3,19.2 -2.2,3.1 -1.6,7.4 1.6,9.7 1.3,0.9 2.7,1.4 4.2,1.4 2.2,0 4.4,-1.1 5.7,-2.8 5.3,-8.2 8,-17.6 8,-27.3 0,-9.7 -2.8,-19.2 -8,-27.3 V 8.6 c -0.8,-0.6 -0.9,-1.3 -0.9,-2 0.2,-0.6 0.5,-1.3 1.1,-1.7 1.1,-0.8 2.8,-0.6 3.6,0.5 6,9.1 9.1,19.6 9.1,30.5 z"
       id="path4536"
       inkscape:connector-curvature="0"
       style="fill:#0abddd;fill-opacity:1" /><path
       d="M 0,36 C 0,24.2 3.5,12.7 10.1,2.8 11.3,1.1 13.4,0 15.7,0 c 1.6,0 3,0.5 4.2,1.4 3.1,2.4 3.8,6.8 1.6,9.7 v 0.2 c -4.7,7.4 -7.2,16 -7.2,24.8 0,8.8 2.5,17.4 7.2,24.8 v 0 c 0.8,1.1 2.5,1.3 3.6,0.5 0.6,-0.5 0.9,-1.1 1.1,-1.7 0.2,-0.6 0,-1.4 -0.5,-1.9 v -0.2 c -4.1,-6.4 -6.1,-14 -6.1,-21.5 0,-7.7 2.2,-15.1 6.1,-21.5 v -0.2 c 1.3,-1.7 3.5,-2.8 5.7,-2.8 1.6,0 3,0.5 4.2,1.4 1.6,1.1 2.5,2.8 2.8,4.6 0.3,1.9 -0.2,3.8 -1.3,5.2 -2.4,4.1 -3.6,8.6 -3.6,13.4 0,4.8 1.3,9.1 3.5,13.2 v 0 c 0.8,1.1 2.5,1.4 3.6,0.5 1.3,-0.9 1.4,-2.4 0.6,-3.6 V 46 c -1.6,-3 -2.4,-6.4 -2.4,-9.9 0,-3.5 0.8,-6.9 2.5,-10.1 1.1,-2 3.1,-3.3 5.5,-3.3 1.1,0 2.2,0.3 3.3,0.9 1.7,0.9 2.7,3.8 2.5,8.2 V 94.7 H 52 C 22.5,91.1 0.2,66.2 0,36.5 Z m 4.4,0.5 C 4.6,62.4 22.8,84.6 48.1,89.6 V 31.9 c 0,-0.2 0,-0.3 0,-0.6 0,-1.1 0,-3.8 -0.6,-4.1 C 47.3,27 47,27 46.8,27 c -0.6,0 -1.4,0.5 -2,1.4 -0.9,1.3 -1.7,4.7 -1.7,7.5 0,2.7 0.6,5.2 1.7,7.4 v 0.2 c 2,3.6 1.4,7.5 -1.6,9.7 -1.3,0.9 -2.7,1.4 -4.2,1.4 -2.2,0 -4.4,-1.1 -5.7,-2.8 -2.8,-4.7 -4.4,-10.2 -4.4,-15.9 0,-5.7 1.4,-11 4.2,-15.7 V 20 c 0.5,-0.6 0.6,-1.3 0.5,-1.9 -0.2,-0.6 -0.5,-1.3 -1.1,-1.7 -1.1,-0.8 -2.8,-0.6 -3.6,0.5 -3.5,5.7 -5.3,12.3 -5.3,19 0,6.7 1.9,13.4 5.3,19.2 2.2,3.1 1.6,7.4 -1.6,9.7 -1.3,0.9 -2.7,1.4 -4.2,1.4 -2.2,0 -4.4,-1.1 -5.7,-2.8 C 12.1,55.2 9.2,45.8 9.2,36.1 9.2,26.4 12,16.9 17.2,8.8 V 8.6 C 17.7,8 17.8,7.3 17.7,6.7 17.6,6.1 17.3,5.5 16.7,5 15.6,4.2 13.9,4.4 13.1,5.5 7.5,14.6 4.4,25.1 4.4,36 Z"
       id="path4538"
       inkscape:connector-curvature="0"
       style="fill:#0abddd;fill-opacity:1" /></g></svg>